<svg id="Component_37_12" data-name="Component 37 – 12" xmlns="http://www.w3.org/2000/svg" width="15.136" height="15.136" viewBox="0 0 15.136 15.136">
  <path id="Path_472" data-name="Path 472" d="M13.61,4.618h0a.908.908,0,1,0,.908.908A.908.908,0,0,0,13.61,4.618ZM17.091,6.45a5.744,5.744,0,0,0-.348-1.839,3.739,3.739,0,0,0-.878-1.34,3.557,3.557,0,0,0-1.34-.87,5.525,5.525,0,0,0-1.839-.356C11.884,2,11.627,2,9.568,2S7.252,2,6.45,2.045A5.525,5.525,0,0,0,4.611,2.4a3.618,3.618,0,0,0-1.34.87,3.557,3.557,0,0,0-.87,1.34A5.524,5.524,0,0,0,2.045,6.45C2,7.252,2,7.509,2,9.568s0,2.316.045,3.118A5.524,5.524,0,0,0,2.4,14.525a3.557,3.557,0,0,0,.87,1.34,3.618,3.618,0,0,0,1.34.87,5.525,5.525,0,0,0,1.839.356c.8.045,1.06.045,3.118.045s2.316,0,3.118-.045a5.525,5.525,0,0,0,1.839-.356,3.557,3.557,0,0,0,1.34-.87,3.67,3.67,0,0,0,.878-1.34,5.744,5.744,0,0,0,.348-1.839c0-.8.045-1.06.045-3.118S17.136,7.252,17.091,6.45ZM15.729,12.6A4.245,4.245,0,0,1,15.471,14a2.316,2.316,0,0,1-.568.87,2.414,2.414,0,0,1-.87.568,4.246,4.246,0,0,1-1.408.257c-.757.038-1.037.045-3.027.045s-2.27,0-3.027-.045A4.337,4.337,0,0,1,5.1,15.471,2.475,2.475,0,0,1,4.27,14.9a2.27,2.27,0,0,1-.56-.87,4.192,4.192,0,0,1-.3-1.438c0-.757-.045-1.037-.045-3.027s0-2.27.045-3.027A4.192,4.192,0,0,1,3.673,5.1a2.27,2.27,0,0,1,.6-.832A2.376,2.376,0,0,1,5.1,3.665a4.337,4.337,0,0,1,1.438-.257c.757,0,1.037-.045,3.027-.045s2.27,0,3.027.045A4.246,4.246,0,0,1,14,3.665a2.316,2.316,0,0,1,.9.605,2.316,2.316,0,0,1,.568.832,4.245,4.245,0,0,1,.257,1.438c.038.757.045,1.037.045,3.027S15.766,11.838,15.729,12.6ZM9.568,5.686a3.875,3.875,0,1,0,2.752,1.132A3.882,3.882,0,0,0,9.568,5.686Zm0,6.4a2.52,2.52,0,1,1,2.52-2.52,2.52,2.52,0,0,1-2.52,2.52Z" transform="translate(-2 -2)"/>
</svg>
