<svg xmlns="http://www.w3.org/2000/svg" width="15.045" height="15.136" viewBox="0 0 15.045 15.136">
  <g id="Component_39_12" data-name="Component 39 – 12" transform="translate(0 0)">
    <path id="Path_475" data-name="Path 475" d="M15.993,2H3.173A1.1,1.1,0,0,0,2.06,3.082V16.053a1.1,1.1,0,0,0,1.113,1.082h12.82a1.1,1.1,0,0,0,1.113-1.082V3.082A1.1,1.1,0,0,0,15.993,2ZM6.624,14.668H4.353V7.857h2.27ZM5.488,6.9h0a1.181,1.181,0,1,1,0-2.361,1.188,1.188,0,1,1,0,2.361Zm9.324,7.765h-2.27V11.013c0-.916-.325-1.514-1.15-1.514a1.249,1.249,0,0,0-1.165.825,1.513,1.513,0,0,0-.076.552v3.784H7.88V7.85h2.27v.961A2.27,2.27,0,0,1,12.2,7.676c1.514,0,2.611.976,2.611,3.073Z" transform="translate(-2.06 -2)"/>
  </g>
</svg>
