<svg xmlns="http://www.w3.org/2000/svg" width="22.468" height="20.221" viewBox="0 0 22.468 20.221">
  <path id="Path_530" data-name="Path 530" d="M23.592,13.111A3.356,3.356,0,0,0,21.1,7.494H15.279A3.37,3.37,0,0,0,12.111,3H5.37A3.356,3.356,0,0,0,2.876,8.617a3.37,3.37,0,0,0,0,4.494,3.37,3.37,0,0,0,0,4.494A3.356,3.356,0,0,0,5.37,23.221H21.1A3.37,3.37,0,0,0,23.592,17.6,3.37,3.37,0,0,0,23.592,13.111ZM12.111,20.975H5.37a1.123,1.123,0,0,1,0-2.247h6.74a1.123,1.123,0,1,1,0,2.247Zm0-4.494H5.37a1.123,1.123,0,0,1,0-2.247h6.74a1.123,1.123,0,1,1,0,2.247Zm0-4.494H5.37a1.123,1.123,0,0,1,0-2.247h6.74a1.123,1.123,0,1,1,0,2.247Zm0-4.494H5.37a1.123,1.123,0,0,1,0-2.247h6.74a1.123,1.123,0,1,1,0,2.247Zm9.762,13.155a1.045,1.045,0,0,1-.775.326H15.279a3.224,3.224,0,0,0,0-2.247H21.1a1.113,1.113,0,0,1,.775,1.921Zm0-4.494a1.045,1.045,0,0,1-.775.326H15.279a3.224,3.224,0,0,0,0-2.247H21.1a1.113,1.113,0,0,1,.775,1.921Zm0-4.494a1.045,1.045,0,0,1-.775.326H15.279a3.224,3.224,0,0,0,0-2.247H21.1a1.113,1.113,0,0,1,.775,1.921Z" transform="translate(-2 -3)" fill="#535353"/>
</svg>
