<svg id="Component_38_12" data-name="Component 38 – 12" xmlns="http://www.w3.org/2000/svg" width="15.136" height="15.136" viewBox="0 0 15.136 15.136">
  <path id="Path_474" data-name="Path 474" d="M140.3,128a2.843,2.843,0,0,1,2.838,2.838v9.46a2.843,2.843,0,0,1-2.838,2.838h-1.853v-5.863h1.961l.3-2.286h-2.257v-1.458a1.263,1.263,0,0,1,.232-.828,1.149,1.149,0,0,1,.9-.276l1.2-.01v-2.04a13.209,13.209,0,0,0-1.754-.089,2.927,2.927,0,0,0-2.143.788,2.979,2.979,0,0,0-.8,2.227v1.685H134.11v2.286h1.971v5.863h-5.243A2.843,2.843,0,0,1,128,140.3v-9.46A2.843,2.843,0,0,1,130.838,128Z" transform="translate(-128 -128)"/>
</svg>
