<svg xmlns="http://www.w3.org/2000/svg" width="20.54" height="22.333" viewBox="0 0 20.54 22.333">
  <g id="Group_104" data-name="Group 104" transform="translate(-4 -2)">
    <path id="Path_22" data-name="Path 22" d="M24.14,10.125l-.569-.476a1.117,1.117,0,0,0-.815-.257,1.091,1.091,0,0,0-.744.395l-.718.852-.916,1.076V8.257a1.117,1.117,0,0,0,.744-1.046V4.978a1.117,1.117,0,0,0-1.117-1.117H18.889V3.117a1.117,1.117,0,0,0-2.233,0v.744H8.839V3.117a1.117,1.117,0,1,0-2.233,0v.744H5.117A1.117,1.117,0,0,0,4,4.978V7.211a1.117,1.117,0,0,0,.744,1.046V22.472a1.861,1.861,0,0,0,1.861,1.861H18.516a1.861,1.861,0,0,0,1.861-1.861V16.349l3.9-4.649a1.117,1.117,0,0,0-.138-1.574ZM17.4,3.117a.372.372,0,1,1,.744,0V5.35a.372.372,0,1,1-.744,0Zm-10.05,0a.372.372,0,0,1,.744,0V5.35a.372.372,0,0,1-.744,0ZM19.633,22.472a1.117,1.117,0,0,1-1.117,1.117H6.605a1.117,1.117,0,0,1-1.117-1.117V8.328H19.633V12.6L15.777,17.2a.331.331,0,0,0-.071.145h0l-.581,2.431a.372.372,0,0,0,.123.372.391.391,0,0,0,.242.086.424.424,0,0,0,.149-.03l2.289-.994h0a.346.346,0,0,0,.134-.1l1.574-1.861Zm-1.906-4.124-1.143-.957L21.609,11.4l1.143.96Z" transform="translate(0 0)" fill="#535353"/>
    <path id="Path_23" data-name="Path 23" d="M13.372,25.744H23.05a.372.372,0,0,0,0-.744H13.372a.372.372,0,0,0,0,.744Zm0,2.978h8.933a.372.372,0,0,0,0-.744H13.372a.372.372,0,1,0,0,.744Zm6.7,2.233h-6.7a.372.372,0,1,0,0,.744h6.7a.372.372,0,0,0,0-.744Zm-.744,2.978H13.372a.372.372,0,1,0,0,.744h5.955a.372.372,0,1,0,0-.744Z" transform="translate(-5.65 -14.439)" fill="#535353"/>
  </g>
</svg>
