<svg xmlns="http://www.w3.org/2000/svg" width="16.89" height="21.911" viewBox="0 0 16.89 21.911">
  <g id="Group_103" data-name="Group 103" transform="translate(-22.209 -8)">
    <path id="Path_7" data-name="Path 7" d="M30.654,8a8.5,8.5,0,0,0-8.445,8.557c0,6.362,6.753,13.355,8.445,13.355S39.1,22.919,39.1,16.557A8.5,8.5,0,0,0,30.654,8Zm0,13.777a5.158,5.158,0,0,1-5.124-5.192,5.213,5.213,0,0,1,.973-3.042,2.069,2.069,0,1,0,2.972-2.01,5.084,5.084,0,0,1,1.179-.139,5.192,5.192,0,0,1,0,10.384Z" transform="translate(0)" fill="#535353"/>
  </g>
</svg>
