<svg id="Component_36_12" data-name="Component 36 – 12" xmlns="http://www.w3.org/2000/svg" width="18.593" height="15.136" viewBox="0 0 18.593 15.136">
  <path id="Path_473" data-name="Path 473" d="M20.593,5.663a7.893,7.893,0,0,1-2.194.595,3.839,3.839,0,0,0,1.683-2.11,7.633,7.633,0,0,1-2.426.93,3.812,3.812,0,0,0-6.508,3.477A10.822,10.822,0,0,1,3.292,4.566,3.867,3.867,0,0,0,2.781,6.49,3.8,3.8,0,0,0,4.473,9.66a3.765,3.765,0,0,1-1.729-.474v.046a3.812,3.812,0,0,0,3.068,3.719,3.654,3.654,0,0,1-1.023.158,4.556,4.556,0,0,1-.716-.065,3.821,3.821,0,0,0,3.561,2.64,7.642,7.642,0,0,1-4.7,1.636A7.373,7.373,0,0,1,2,17.265a10.757,10.757,0,0,0,5.848,1.72A10.775,10.775,0,0,0,18.734,8.126V7.634a7.837,7.837,0,0,0,1.859-1.971Z" transform="translate(-2 -3.849)"/>
</svg>
